<?xml version="1.0" standalone="no"?>
<!DOCTYPE svg PUBLIC "-//W3C//DTD SVG 20010904//EN"
 "http://www.w3.org/TR/2001/REC-SVG-20010904/DTD/svg10.dtd">
<svg version="1.0" xmlns="http://www.w3.org/2000/svg"
 width="432.000000pt" height="432.000000pt" viewBox="0 0 432.000000 432.000000"
 preserveAspectRatio="xMidYMid meet">
<metadata>
Created by potrace 1.11, written by Peter Selinger 2001-2013
</metadata>
<g transform="translate(0.000000,432.000000) scale(0.100000,-0.100000)"
fill="#000000" stroke="none">
<path d="M1553 4227 c-18 -7 -40 -20 -49 -29 -16 -16 -18 -16 -30 0 -11 16
-14 15 -33 -2 -12 -11 -21 -17 -21 -14 0 3 -19 0 -42 -7 -40 -12 -43 -15 -43
-49 0 -21 -5 -36 -12 -36 -6 0 -14 -9 -18 -19 -5 -16 -22 -30 -45 -36 -66 -16
-108 -94 -87 -160 8 -25 -9 -47 -50 -64 -31 -13 -49 -46 -44 -83 2 -20 -18
-62 -26 -54 -10 10 -62 -24 -84 -56 -13 -18 -30 -38 -38 -45 -13 -9 -14 -16
-3 -45 16 -46 15 -75 -3 -82 -21 -8 -19 -20 8 -51 22 -27 23 -27 60 -12 20 9
37 12 37 6 0 -5 11 -14 25 -19 22 -8 24 -13 16 -29 -19 -34 -27 -126 -17 -176
3 -11 5 -27 5 -36 1 -21 28 -32 48 -20 10 5 22 3 34 -7 17 -15 16 -17 -17 -51
-19 -19 -34 -38 -34 -42 0 -14 -50 -19 -74 -8 -25 12 -69 85 -65 111 5 38 -3
59 -26 70 -19 9 -28 9 -37 0 -7 -7 -22 -12 -34 -12 -15 0 -25 -8 -30 -22 -11
-31 -11 -34 -13 -63 -1 -15 -7 -25 -16 -25 -9 0 -20 -12 -25 -26 -8 -21 -6
-33 11 -60 11 -19 25 -34 31 -34 6 0 -4 -13 -21 -29 -17 -16 -32 -34 -32 -40
-3 -20 -4 -26 -18 -68 -12 -37 -12 -45 3 -68 9 -14 23 -25 30 -25 21 0 103 49
110 65 8 22 26 18 26 -6 0 -14 10 -24 30 -32 18 -7 29 -18 28 -27 -3 -17 14
-65 42 -122 20 -40 18 -44 -23 -52 -41 -7 -93 14 -108 43 -23 46 -64 101 -75
101 -5 0 -15 -5 -21 -11 -18 -18 36 -115 94 -170 33 -32 60 -49 86 -53 20 -4
37 -12 37 -19 0 -20 -59 -49 -99 -49 -26 1 -38 -4 -38 -14 0 -8 7 -14 15 -14
12 0 10 -5 -6 -23 -12 -13 -22 -30 -22 -39 0 -18 103 -64 119 -53 12 7 71 -24
71 -37 0 -4 8 -8 19 -8 25 0 32 -42 12 -68 -18 -22 -102 -61 -143 -66 -44 -5
-58 -23 -58 -74 0 -38 5 -49 36 -78 19 -19 43 -34 52 -35 9 0 28 -2 42 -4 14
-3 49 -5 79 -5 53 -1 54 -2 131 -80 90 -91 113 -101 118 -51 l3 34 22 -34 c11
-19 20 -37 19 -41 -1 -4 7 -30 18 -58 11 -28 20 -61 20 -74 0 -13 13 -43 30
-67 16 -24 30 -48 30 -52 0 -17 -54 -79 -82 -93 -15 -8 -28 -20 -28 -28 0 -7
29 -43 64 -80 53 -55 69 -66 90 -62 43 8 74 38 81 78 7 39 19 49 28 25 8 -21
73 -48 100 -42 12 3 44 26 70 51 26 24 54 44 62 44 18 0 18 -1 5 -36 -12 -30
1 -44 45 -51 32 -5 38 -5 67 1 32 7 42 -5 33 -43 -5 -22 -16 -33 -46 -45 -44
-18 -61 -13 -92 24 -16 19 -21 20 -32 9 -31 -32 -18 -90 28 -131 25 -22 34
-24 53 -16 39 18 52 5 45 -44 -16 -106 7 -156 63 -142 18 4 25 1 28 -14 3 -11
25 -30 49 -42 23 -12 50 -32 59 -43 11 -13 30 -21 55 -23 20 -1 41 -7 45 -14
4 -7 15 -10 23 -7 9 3 30 -8 52 -30 33 -32 40 -35 73 -28 20 4 56 8 78 10 l42
3 -3 -62 c-5 -86 -30 -274 -49 -366 -7 -31 -33 -125 -55 -200 -6 -19 -11 -36
-11 -37 0 -2 145 -3 323 -3 l324 0 14 28 c8 15 20 33 26 40 7 7 30 50 52 95
21 45 70 145 107 222 37 77 69 145 70 150 1 6 11 30 23 55 23 51 78 212 85
256 7 39 49 202 75 289 16 57 19 91 17 180 -4 110 -20 215 -37 247 -9 16 -14
15 -58 -16 -46 -33 -49 -34 -54 -14 -7 25 -19 19 -92 -51 -38 -36 -66 -76 -86
-118 -16 -35 -34 -61 -39 -58 -6 4 -8 10 -6 13 2 4 -4 19 -15 32 l-19 25 -31
-35 c-17 -19 -34 -44 -39 -55 -6 -16 -9 -9 -15 30 -7 46 -32 105 -45 105 -16
-1 -29 -22 -49 -82 -23 -69 -40 -94 -42 -61 0 10 -2 25 -4 33 -2 8 -6 25 -9
37 -2 12 -12 38 -21 57 -18 37 -41 41 -58 10 -6 -10 -16 -22 -23 -27 -21 -12
-31 -66 -28 -153 2 -44 -1 -98 -6 -120 -5 -21 -10 -58 -11 -82 -2 -23 -7 -42
-11 -42 -10 0 -10 2 -13 215 -1 99 -5 195 -9 213 -8 40 6 48 58 34 29 -8 40
-7 57 7 20 16 20 20 9 81 -7 36 -17 75 -22 87 -6 11 -7 26 -4 32 4 6 3 11 -2
11 -19 0 -21 29 -5 69 16 40 16 41 -22 118 -21 43 -56 97 -79 120 -22 23 -56
57 -75 77 -19 20 -42 36 -52 36 -25 0 -24 8 6 32 28 22 32 54 11 83 -10 14
-11 25 -5 37 11 21 -2 52 -29 67 -12 8 -14 13 -5 19 13 8 33 55 33 77 0 7 -15
-2 -34 -21 -19 -19 -41 -34 -50 -34 -9 0 -16 -4 -16 -10 0 -20 -18 -9 -28 18
-6 15 -32 49 -57 76 -36 37 -44 51 -33 57 7 5 17 9 21 9 5 0 23 6 40 14 18 8
46 18 62 23 40 13 42 52 3 71 -16 7 -28 17 -28 23 0 5 -7 9 -15 9 -17 0 -20
11 -5 26 5 5 16 31 24 58 14 44 13 51 -2 72 -20 27 -40 31 -49 9 -5 -16 -72
-49 -80 -41 -3 2 9 14 26 27 17 12 28 26 25 30 -2 4 0 10 6 14 5 3 10 17 10
30 0 37 -57 45 -137 19 -10 -3 -6 2 8 12 15 9 34 32 42 50 15 30 14 33 -4 50
-23 21 -24 56 -3 89 14 21 14 30 4 55 -16 40 -35 53 -71 52 -36 -1 -47 19 -26
51 22 33 15 93 -15 125 -14 15 -28 34 -31 43 -6 19 11 98 26 117 11 14 -10 38
-56 61 -27 14 -27 15 -9 35 40 44 57 85 45 105 -10 16 -7 21 22 37 39 21 48
45 28 74 -13 18 -23 20 -94 18 -86 -3 -103 9 -50 36 44 23 47 66 6 72 -25 3
-55 17 -55 26 0 14 -42 52 -72 65 -16 7 -28 19 -28 27 0 23 -21 64 -35 70 -26
10 -52 -6 -66 -41 -12 -32 -16 -34 -44 -28 -16 4 -36 7 -42 8 -7 0 -15 9 -19
19 -3 10 -12 18 -20 18 -8 0 -14 5 -14 11 0 7 9 6 23 -4 13 -8 29 -12 35 -8
11 7 10 41 -3 61 -11 18 -61 39 -91 38 -16 -1 -38 2 -49 5 -11 3 -34 0 -52 -6z
m58 -94 c-6 -10 -19 -29 -31 -43 l-20 -25 4 31 c4 41 13 54 37 54 16 0 18 -3
10 -17z m-243 -719 c9 -9 18 -35 20 -58 3 -35 -8 -47 -14 -13 -1 7 -9 29 -18
50 -18 40 -14 46 12 21z m-15 -460 c26 -9 47 -22 47 -30 0 -13 27 -32 45 -32
6 1 17 -14 27 -33 l16 -34 -26 -6 c-36 -7 -43 -2 -36 25 5 21 1 24 -33 30 -35
6 -68 8 -135 5 -52 -1 -54 12 -7 53 24 21 47 38 50 38 3 0 26 -7 52 -16z
m-300 -65 c-14 -14 -4 -49 14 -49 11 0 13 -4 6 -12 -5 -7 -9 -34 -9 -60 l1
-47 -21 19 c-14 14 -23 17 -31 9 -7 -7 -15 2 -27 32 -17 41 -17 44 0 56 10 7
14 13 9 13 -5 0 2 11 15 25 13 14 30 25 39 25 11 0 12 -3 4 -11z m1406 -701
c-50 -45 -91 -68 -165 -92 -50 -16 -57 -24 -69 -75 -2 -8 -10 -20 -18 -28 -13
-14 -16 -11 -65 90 -2 4 8 2 22 -4 22 -10 33 -8 72 12 25 13 50 34 54 45 8 21
59 45 122 58 15 4 40 17 55 30 46 40 39 7 -8 -36z m-609 -99 c0 -43 -33 -71
-74 -64 -32 6 -64 -11 -67 -36 -4 -25 -7 -50 -8 -64 -2 -23 -47 -30 -76 -11
-36 24 -56 79 -53 148 2 32 4 58 6 58 1 0 19 -7 40 -16 57 -24 112 -21 162 9
50 30 70 23 70 -24z m91 -146 c-14 -39 -23 -50 -49 -58 -18 -5 -32 -15 -32
-22 0 -7 -4 -13 -8 -13 -5 0 -15 -11 -22 -25 -16 -29 -23 -31 -44 -9 -14 14
-13 17 10 37 18 16 25 33 27 62 2 35 5 40 28 42 14 1 41 11 59 22 19 11 37 18
41 15 4 -2 -1 -25 -10 -51z m87 -42 c29 -62 28 -66 -8 -39 -23 16 -30 30 -30
55 0 45 11 41 38 -16z m230 29 c7 -11 20 -20 30 -20 10 0 28 -11 40 -25 25
-29 48 -32 80 -9 12 8 35 14 50 12 30 -3 32 -13 18 -87 -7 -37 -5 -47 9 -57
10 -8 22 -11 26 -8 5 3 9 2 9 -3 -1 -11 -29 -60 -30 -50 0 14 -56 -24 -66 -46
-5 -11 -13 -22 -19 -24 -8 -2 -81 107 -94 141 -2 6 -7 13 -10 16 -14 12 -90
168 -84 174 12 12 28 6 41 -14z m299 -12 c-3 -8 -6 -5 -6 6 -1 11 2 17 5 13 3
-3 4 -12 1 -19z m44 -86 c-5 -18 -2 -32 8 -44 20 -23 34 -23 56 2 10 11 24 20
31 20 25 0 25 -20 1 -44 -21 -21 -29 -23 -62 -16 -20 4 -39 11 -42 13 -3 3
-16 2 -29 -3 l-24 -10 16 31 c10 19 14 48 12 75 l-3 43 21 -20 c17 -16 20 -27
15 -47z m-487 -116 c18 -36 30 -66 28 -66 -13 0 -62 62 -62 79 0 11 -5 32 -11
48 -18 50 10 10 45 -61z m414 -100 c11 -14 39 -30 62 -36 36 -10 46 -8 85 11
38 19 49 21 71 10 26 -11 26 -12 9 -31 -10 -11 -26 -20 -36 -20 -10 0 -22 -6
-26 -14 -8 -14 -12 -16 -33 -16 -13 0 -90 -115 -90 -134 0 -29 -18 -16 -39 27
-11 23 -36 66 -56 95 -41 63 -42 70 -14 106 25 32 40 33 67 2z m-302 -69 c16
-23 38 -51 50 -62 24 -24 58 -74 53 -79 -2 -2 -25 -15 -50 -30 -51 -29 -99
-29 -151 2 -35 20 -35 26 0 51 44 31 67 91 54 141 -12 49 0 43 44 -23z m199
-268 c9 -16 12 -29 7 -29 -5 0 -16 -18 -25 -40 -8 -22 -22 -40 -30 -40 -9 0
-27 -14 -41 -31 -31 -36 -34 -80 -9 -140 l16 -42 -29 -24 c-47 -39 -74 -46
-95 -27 -11 10 -19 13 -19 8 -1 -20 -50 -44 -75 -38 l-25 6 25 29 c13 16 27
44 30 62 6 28 13 35 54 50 51 18 97 59 86 77 -4 7 -17 4 -39 -10 -37 -23 -76
-26 -94 -8 -25 25 -13 35 36 30 41 -4 51 -1 75 23 15 15 27 33 27 40 0 17 -50
26 -74 13 -15 -8 -22 -7 -33 8 -25 34 -17 42 32 31 67 -15 119 3 147 53 25 42
31 42 53 -1z m70 -115 c9 -25 14 -48 11 -51 -3 -4 -6 -1 -6 5 0 6 -11 22 -25
35 -17 15 -24 29 -19 40 10 27 20 20 39 -29z m85 -219 c17 -43 19 -55 9 -60
-26 -17 -58 59 -51 120 l4 30 16 -35 c8 -19 18 -44 22 -55z"/>
</g>
</svg>
